
<svg width="180" height="180" viewBox="0 0 180 180" xmlns="http://www.w3.org/2000/svg"><path d="M131.3 44l-12 12V22L95.5 46c4 6.5 7 12 8.5 16.3 1.6 4.3 2.4 9.2 2.4 14.7v2.4c2 .4 4.2 1 6.2 1.7 4 1.4 9.3 4.2 15.7 8.3l23.5-23.5H119l12-12h41.3v41.6l-12 12v-34l-23.6 24c4.2 6.5 7 12 8.5 16.2 1.6 4.3 2.3 9.2 2.3 14.7 0 13.5-5 25-14.6 34.7-9.8 9.7-21.5 14.5-35 14.5-13.6 0-25.2-4.8-34.8-14.4-9.6-9.5-14.5-21-14.5-34.6 0-1 0-2 .2-2.8-10.4-1.5-19.3-6.2-27-13.8C12.4 102 7.6 90.5 7.6 77 7.6 63 12.4 51.4 22 42c9.5-9.5 21.4-14.2 35.6-14.2 5.2 0 9.8.7 14 2 4 1.5 9 4.2 15.5 8.3l23.7-23.6H78l12-12h41l.3 41.7zM57 40C46.7 40 38 43.8 31 51 23.8 58 20.3 66.5 20.3 76.5c0 10.5 3.5 19.2 10.6 26.2 5.6 5.6 12.3 9 20 10 2.3-7.3 6.3-13.8 12-19.5 8.4-8.3 18.6-13 30.5-14v-3c0-9.7-3.6-18-11-25.3C75.4 43.6 67 40 57 40zm4.4 88c0 10.3 3.6 19 10.7 26 7.2 7 16 10.6 26.6 10.6 9.8 0 18.3-3.7 25.5-11 7.2-7.3 10.8-16 10.8-26 0-9.7-3.7-18.2-11-25.4-5.8-5.7-12.4-9-19.7-10.2-2.2 7.2-6.4 13.8-12.3 19.7C83 120.2 73 125 61.4 126v2zM72 102c-3 3.2-5.5 6.6-7.3 10.3 6.8-1.4 13-4.8 18.2-10.2 3-3 5.3-6.5 7-10-6.7 1.4-12.7 4.7-18 10z" fill="#000" fill-rule="evenodd"/></svg>