<?xml version="1.0" standalone="no"?>
<!DOCTYPE svg PUBLIC "-//W3C//DTD SVG 20010904//EN"
 "http://www.w3.org/TR/2001/REC-SVG-20010904/DTD/svg10.dtd">
<svg version="1.0" xmlns="http://www.w3.org/2000/svg"
 width="512.000000pt" height="512.000000pt" viewBox="0 0 512.000000 512.000000"
 preserveAspectRatio="xMidYMid meet">
<metadata>
Created by potrace 1.11, written by Peter Selinger 2001-2013
</metadata>
<g transform="translate(0.000000,512.000000) scale(0.100000,-0.100000)"
fill="#000000" stroke="none">
<path d="M2357 4715 c-1 -1 -45 -5 -97 -8 -116 -7 -362 -56 -490 -97 -127 -41
-320 -136 -400 -198 -157 -119 -396 -421 -489 -617 -178 -375 -148 -757 91
-1170 48 -82 137 -202 272 -368 160 -196 188 -382 103 -677 -75 -258 -69 -314
49 -465 69 -90 188 -206 300 -295 322 -256 679 -440 820 -424 92 11 186 62
229 124 25 37 110 231 171 393 16 43 43 94 60 113 40 43 69 44 200 4 136 -42
147 -44 254 -43 193 1 327 77 378 216 12 30 26 86 33 124 14 89 41 143 84 172
35 23 55 49 63 81 7 27 2 104 -8 114 -17 17 -12 25 29 46 47 23 81 64 76 89
-2 10 -13 38 -25 62 -47 95 -57 79 112 164 84 41 160 83 170 92 25 22 23 79
-5 128 -13 22 -74 107 -135 188 -62 80 -112 149 -112 153 0 3 -8 18 -19 32
-18 27 -37 77 -46 123 -3 13 -1 49 5 79 11 68 20 126 26 165 9 64 11 314 3
380 -12 99 -20 149 -24 156 -2 3 -7 21 -10 40 -19 116 -109 318 -198 449 -58
84 -234 266 -317 327 -208 154 -454 264 -685 309 -22 4 -44 8 -50 9 -25 6 -85
14 -140 20 -58 6 -273 13 -278 10z"/>
</g>
</svg>
