<svg width="129" height="145" viewBox="0 0 129 145" xmlns="http://www.w3.org/2000/svg"><title>Group 32</title><g stroke="#000" stroke-width="3" fill="none" fill-rule="evenodd"><path d="M121.771 112.394l-51.387 29.668a11.998 11.998 0 0 1-12 0L7 112.394a11.997 11.997 0 0 1-6-10.391V42.667c0-4.287 2.287-8.248 6-10.39L58.384 2.609a11.993 11.993 0 0 1 12 0l51.387 29.668c3.713 2.142 6 6.103 6 10.39v59.336c0 4.287-2.287 8.248-6 10.39z" stroke-linecap="round" fill="#FFF"/><path d="M96.922 78.557l-8.557-5.725 8.557-5.724v11.449zM67.38 102.823V86.869l14.832-9.92 11.969 8.006-26.801 17.868zm-3.42-21.898l-12.1-8.093 12.1-8.092 12.1 8.092-12.1 8.093zm-3.422 21.898L33.736 84.955l11.973-8.005 14.83 9.919v15.954zM30.998 67.108l8.559 5.724-8.56 5.725v-11.45zm29.54-24.265v15.953l-14.83 9.922-11.972-8.01 26.803-17.865zm6.843 0l26.8 17.866-11.968 8.009-14.832-9.922V42.843zm36.353 17.417c-.01-.053-.02-.1-.027-.15a3.095 3.095 0 0 0-.06-.286c-.016-.058-.038-.112-.055-.166a3.48 3.48 0 0 0-.086-.25 1.818 1.818 0 0 0-.078-.165 1.673 1.673 0 0 0-.117-.227c-.03-.056-.065-.108-.098-.16a2.565 2.565 0 0 0-.143-.208c-.04-.05-.078-.1-.117-.147a2.522 2.522 0 0 0-.172-.187c-.045-.045-.088-.092-.134-.132a7.096 7.096 0 0 0-.194-.165c-.052-.04-.103-.08-.154-.116-.02-.013-.037-.03-.06-.042L65.86 33.604a3.42 3.42 0 0 0-3.796 0L25.68 57.859c-.02.012-.037.029-.055.042a1.628 1.628 0 0 0-.154.116 2.872 2.872 0 0 0-.195.165c-.047.04-.092.087-.14.132a2.7 2.7 0 0 0-.167.187 2.387 2.387 0 0 0-.26.356 1.954 1.954 0 0 0-.101.159 3.681 3.681 0 0 0-.118.227c-.023.05-.05.109-.072.166a2.058 2.058 0 0 0-.09.249c-.017.054-.04.108-.052.166-.026.09-.043.189-.061.287-.01.049-.022.096-.025.149a2.946 2.946 0 0 0-.034.444V84.96c0 .15.012.299.034.449.003.046.015.096.025.146.018.097.035.19.06.286.014.058.036.112.053.167.026.082.053.167.09.25.022.056.049.11.072.165.039.077.077.153.118.229.033.052.064.105.1.157.044.07.09.14.142.206.037.052.078.103.119.148.053.064.109.128.168.186.047.047.092.092.139.134.062.057.126.112.195.165.047.038.097.079.154.116.018.013.035.029.055.043l36.383 24.255a3.431 3.431 0 0 0 3.797 0l36.38-24.255c.022-.014.039-.03.059-.043l.154-.116c.065-.053.129-.108.194-.165.046-.042.089-.087.134-.134a2.733 2.733 0 0 0 .289-.334c.05-.066.098-.135.143-.206.033-.052.068-.105.098-.157.045-.076.082-.152.117-.23.027-.053.055-.108.078-.163.03-.084.06-.17.086-.251.017-.055.039-.11.055-.167.025-.095.043-.19.06-.286.008-.05.018-.1.027-.146.02-.15.03-.3.03-.45V60.705c0-.151-.01-.3-.03-.444z"/></g></svg>