<?xml version="1.0" encoding="UTF-8"?>
<svg width="129px" height="145px" viewBox="0 0 129 145" version="1.1" xmlns="http://www.w3.org/2000/svg" xmlns:xlink="http://www.w3.org/1999/xlink">
    <!-- Generator: Sketch 41.2 (35397) - http://www.bohemiancoding.com/sketch -->
    <title>Group 32</title>
    <desc>Created with Sketch.</desc>
    <defs></defs>
    <g id="Page-1" stroke="none" stroke-width="1" fill="none" fill-rule="evenodd">
        <g id="Group-32" transform="translate(1.000000, 1.000000)" stroke="#000000" stroke-width="2">
            <path d="M120.771,111.39375 L69.384,141.06175 C65.671,143.20575 61.097,143.20575 57.384,141.06175 L6,111.39375 C2.287,109.25075 0,105.28975 0,101.00275 L0,41.66675 C0,37.37975 2.287,33.41875 6,31.27675 L57.384,1.60875 C61.097,-0.53625 65.671,-0.53625 69.384,1.60875 L120.771,31.27675 C124.484,33.41875 126.771,37.37975 126.771,41.66675 L126.771,101.00275 C126.771,105.28975 124.484,109.25075 120.771,111.39375 L120.771,111.39375 Z" id="Stroke-257" stroke-linecap="round" fill="#FFFFFF"></path>
            <path d="M95.9219,77.5566 L87.3649,71.8316 L95.9219,66.1076 L95.9219,77.5566 L95.9219,77.5566 Z M66.3809,101.8226 L66.3809,85.8686 L81.2129,75.9496 L93.1819,83.9546 L66.3809,101.8226 L66.3809,101.8226 Z M62.9609,79.9246 L50.8609,71.8316 L62.9609,63.7396 L75.0609,71.8316 L62.9609,79.9246 L62.9609,79.9246 Z M59.5389,101.8226 L32.7359,83.9546 L44.7089,75.9496 L59.5389,85.8686 L59.5389,101.8226 L59.5389,101.8226 Z M29.9979,66.1076 L38.5569,71.8316 L29.9979,77.5566 L29.9979,66.1076 L29.9979,66.1076 Z M59.5389,41.8426 L59.5389,57.7956 L44.7089,67.7176 L32.7359,59.7086 L59.5389,41.8426 L59.5389,41.8426 Z M66.3809,41.8426 L93.1819,59.7086 L81.2129,67.7176 L66.3809,57.7956 L66.3809,41.8426 L66.3809,41.8426 Z M102.7339,59.2596 C102.7249,59.2066 102.7149,59.1596 102.7069,59.1106 C102.6899,59.0126 102.6719,58.9146 102.6469,58.8236 C102.6309,58.7656 102.6089,58.7116 102.5919,58.6576 C102.5669,58.5726 102.5369,58.4906 102.5059,58.4086 C102.4829,58.3516 102.4549,58.2936 102.4279,58.2426 C102.3929,58.1616 102.3559,58.0876 102.3109,58.0156 C102.2809,57.9596 102.2459,57.9076 102.2129,57.8566 C102.1679,57.7846 102.1209,57.7136 102.0699,57.6476 C102.0309,57.5976 101.9919,57.5476 101.9529,57.5006 C101.8989,57.4366 101.8419,57.3726 101.7809,57.3136 C101.7359,57.2686 101.6929,57.2216 101.6469,57.1816 C101.5819,57.1246 101.5179,57.0696 101.4529,57.0166 C101.4009,56.9776 101.3499,56.9376 101.2989,56.9006 C101.2789,56.8876 101.2619,56.8706 101.2399,56.8586 L64.8599,32.6036 C63.7089,31.8366 62.2129,31.8366 61.0629,32.6036 L24.6799,56.8586 C24.6599,56.8706 24.6429,56.8876 24.6249,56.9006 C24.5679,56.9376 24.5179,56.9776 24.4709,57.0166 C24.4019,57.0696 24.3379,57.1246 24.2759,57.1816 C24.2289,57.2216 24.1839,57.2686 24.1369,57.3136 C24.0779,57.3726 24.0219,57.4366 23.9689,57.5006 C23.9279,57.5476 23.8869,57.5976 23.8499,57.6476 C23.7989,57.7136 23.7519,57.7846 23.7089,57.8566 C23.6719,57.9076 23.6409,57.9596 23.6079,58.0156 C23.5669,58.0876 23.5289,58.1616 23.4899,58.2426 C23.4669,58.2936 23.4399,58.3516 23.4179,58.4086 C23.3809,58.4906 23.3539,58.5726 23.3279,58.6576 C23.3109,58.7116 23.2889,58.7656 23.2759,58.8236 C23.2499,58.9146 23.2329,59.0126 23.2149,59.1106 C23.2049,59.1596 23.1929,59.2066 23.1899,59.2596 C23.1679,59.4036 23.1559,59.5526 23.1559,59.7036 L23.1559,83.9596 C23.1559,84.1096 23.1679,84.2586 23.1899,84.4086 C23.1929,84.4546 23.2049,84.5046 23.2149,84.5546 C23.2329,84.6516 23.2499,84.7456 23.2759,84.8406 C23.2889,84.8986 23.3109,84.9526 23.3279,85.0076 C23.3539,85.0896 23.3809,85.1746 23.4179,85.2586 C23.4399,85.3136 23.4669,85.3686 23.4899,85.4226 C23.5289,85.4996 23.5669,85.5756 23.6079,85.6516 C23.6409,85.7036 23.6719,85.7566 23.7089,85.8086 C23.7519,85.8796 23.7989,85.9486 23.8499,86.0146 C23.8869,86.0666 23.9279,86.1176 23.9689,86.1626 C24.0219,86.2266 24.0779,86.2906 24.1369,86.3486 C24.1839,86.3956 24.2289,86.4406 24.2759,86.4826 C24.3379,86.5396 24.4019,86.5946 24.4709,86.6476 C24.5179,86.6856 24.5679,86.7266 24.6249,86.7636 C24.6429,86.7766 24.6599,86.7926 24.6799,86.8066 L61.0629,111.0616 C61.6349,111.4446 62.2989,111.6356 62.9609,111.6356 C63.6209,111.6356 64.2829,111.4446 64.8599,111.0616 L101.2399,86.8066 C101.2619,86.7926 101.2789,86.7766 101.2989,86.7636 C101.3499,86.7266 101.4009,86.6856 101.4529,86.6476 C101.5179,86.5946 101.5819,86.5396 101.6469,86.4826 C101.6929,86.4406 101.7359,86.3956 101.7809,86.3486 C101.8419,86.2906 101.8989,86.2266 101.9529,86.1626 C101.9919,86.1176 102.0309,86.0666 102.0699,86.0146 C102.1209,85.9486 102.1679,85.8796 102.2129,85.8086 C102.2459,85.7566 102.2809,85.7036 102.3109,85.6516 C102.3559,85.5756 102.3929,85.4996 102.4279,85.4226 C102.4549,85.3686 102.4829,85.3136 102.5059,85.2586 C102.5369,85.1746 102.5669,85.0896 102.5919,85.0076 C102.6089,84.9526 102.6309,84.8986 102.6469,84.8406 C102.6719,84.7456 102.6899,84.6516 102.7069,84.5546 C102.7149,84.5046 102.7249,84.4546 102.7339,84.4086 C102.7539,84.2586 102.7639,84.1096 102.7639,83.9596 L102.7639,59.7036 C102.7639,59.5526 102.7539,59.4036 102.7339,59.2596 L102.7339,59.2596 Z" id="Stroke-51"></path>
        </g>
    </g>
</svg>