<svg width="130" height="145" viewBox="0 0 130 145" xmlns="http://www.w3.org/2000/svg"><title>Facebook</title><g stroke="#000" stroke-width="3" fill="none" fill-rule="evenodd"><path d="M122.285 112.398L70.9 142.066a11.998 11.998 0 0 1-12 0L7.514 112.398a12 12 0 0 1-6-10.392V42.67a12 12 0 0 1 6-10.391L58.9 2.613a11.998 11.998 0 0 1 12 0l51.386 29.667c3.713 2.143 6 6.104 6 10.39v59.336c0 4.288-2.287 8.248-6 10.392z" stroke-linecap="round" fill="#FFF"/><path d="M55.3 110.067h13.73v-37.71h10.299l2.037-11.781H69.03v-8.54c0-2.751 1.78-5.642 4.324-5.642h7.01V34.61h-8.592v.054c-13.444.487-16.205 8.273-16.446 16.453H55.3v9.458h-6.867v11.782H55.3v37.709z"/></g></svg>