<?xml version="1.0" encoding="UTF-8"?>
<svg width="130px" height="145px" viewBox="0 0 130 145" version="1.1" xmlns="http://www.w3.org/2000/svg" xmlns:xlink="http://www.w3.org/1999/xlink">
    <!-- Generator: Sketch 41.2 (35397) - http://www.bohemiancoding.com/sketch -->
    <title>Facebook</title>
    <desc>Created with Sketch.</desc>
    <defs></defs>
    <g id="Page-1" stroke="none" stroke-width="1" fill="none" fill-rule="evenodd">
        <g id="Facebook" transform="translate(1.000000, 1.000000)" stroke="#000000" stroke-width="2">
            <path d="M121.2852,111.3979 L69.8992,141.0659 C66.1862,143.2099 61.6122,143.2099 57.8992,141.0659 L6.5142,111.3979 C2.8022,109.2539 0.5142,105.2939 0.5142,101.0059 L0.5142,41.6709 C0.5142,37.3839 2.8022,33.4229 6.5142,31.2799 L57.8992,1.6129 C61.6122,-0.5311 66.1862,-0.5311 69.8992,1.6129 L121.2852,31.2799 C124.9982,33.4229 127.2852,37.3839 127.2852,41.6709 L127.2852,101.0059 C127.2852,105.2939 124.9982,109.2539 121.2852,111.3979 L121.2852,111.3979 Z" id="Stroke-185" stroke-linecap="round" fill="#FFFFFF"></path>
            <path d="M54.3008,109.0669 L68.0298,109.0669 L68.0298,71.3579 L78.3288,71.3579 L80.3658,59.5759 L68.0298,59.5759 L68.0298,51.0369 C68.0298,48.2849 69.8108,45.3939 72.3538,45.3939 L79.3638,45.3939 L79.3638,33.6109 L70.7718,33.6109 L70.7718,33.6649 C57.3278,34.1519 54.5668,41.9379 54.3258,50.1179 L54.3008,50.1179 L54.3008,59.5759 L47.4338,59.5759 L47.4338,71.3579 L54.3008,71.3579 L54.3008,109.0669 L54.3008,109.0669 Z" id="Stroke-180"></path>
        </g>
    </g>
</svg>