<?xml version="1.0" encoding="UTF-8"?>
<svg width="129px" height="145px" viewBox="0 0 129 145" version="1.1" xmlns="http://www.w3.org/2000/svg" xmlns:xlink="http://www.w3.org/1999/xlink">
    <!-- Generator: Sketch 41.2 (35397) - http://www.bohemiancoding.com/sketch -->
    <title>Github</title>
    <desc>Created with Sketch.</desc>
    <defs></defs>
    <g id="Page-1" stroke="none" stroke-width="1" fill="none" fill-rule="evenodd">
        <g id="Github" transform="translate(1.000000, 1.000000)" stroke-width="2" fill="#FFFFFF">
            <path d="M120.771,111.39375 L69.384,141.06175 C65.671,143.20575 61.097,143.20575 57.384,141.06175 L6,111.39375 C2.287,109.25075 0,105.28975 0,101.00275 L0,41.66675 C0,37.37975 2.287,33.41875 6,31.27675 L57.384,1.60875 C61.097,-0.53625 65.671,-0.53625 69.384,1.60875 L120.771,31.27675 C124.484,33.41875 126.771,37.37975 126.771,41.66675 L126.771,101.00275 C126.771,105.28975 124.484,109.25075 120.771,111.39375 L120.771,111.39375 Z" id="Stroke-257-Copy" stroke="#000000" stroke-linecap="round"></path>
            <g id="github" transform="translate(28.000000, 37.000000)" stroke="#080707">
                <path d="M0,35 C-0.00111656024,50.0657171 9.63876741,63.441717 23.93125,68.20625 C25.68125,68.534375 26.324375,67.45375 26.324375,66.521875 C26.324375,65.690625 26.29375,63.49 26.280625,60.571875 C16.541875,62.685 14.49,55.8775 14.49,55.8775 C12.8975,51.835 10.59625,50.75875 10.59625,50.75875 C7.424375,48.58875 10.84125,48.6325 10.84125,48.6325 C14.354375,48.8775 16.200625,52.2375 16.200625,52.2375 C19.324375,57.588125 24.395,56.04375 26.394375,55.146875 C26.709375,52.885 27.610625,51.340625 28.6125,50.465625 C20.838125,49.590625 12.67,46.580625 12.67,33.17125 C12.67,29.351875 14.02625,26.228125 16.270625,23.778125 C15.876875,22.894375 14.695625,19.3375 16.576875,14.51625 C16.576875,14.51625 19.508125,13.575625 26.201875,18.10375 C29.0537825,17.3263248 31.9959112,16.9291374 34.951875,16.9225 C37.9078388,16.9291374 40.8499675,17.3263248 43.701875,18.10375 C50.351875,13.575625 53.283125,14.51625 53.283125,14.51625 C55.164375,19.3375 53.983125,22.894375 53.633125,23.778125 C55.9882962,26.3338619 57.2724702,29.6962055 57.220625,33.17125 C57.220625,46.615625 49.039375,49.5775 41.251875,50.439375 C42.476875,51.489375 43.614375,53.633125 43.614375,56.914375 C43.614375,61.595625 43.570625,65.358125 43.570625,66.495625 C43.570625,67.414375 44.183125,68.508125 45.976875,68.158125 C60.3125691,63.4635185 70.0054707,50.0848078 70,35 C70,15.6700338 54.3299662,1.18361906e-15 35,0 C15.6700338,-1.18361906e-15 2.36723813e-15,15.6700338 0,35 Z" id="Shape"></path>
            </g>
        </g>
    </g>
</svg>