<svg width="129" height="145" viewBox="0 0 129 145" xmlns="http://www.w3.org/2000/svg"><title>Github</title><g fill="#FFF" stroke-width="3" fill-rule="evenodd"><path d="M121.771 112.394l-51.387 29.668a11.998 11.998 0 0 1-12 0L7 112.394a11.997 11.997 0 0 1-6-10.391V42.667c0-4.287 2.287-8.248 6-10.39L58.384 2.609a11.993 11.993 0 0 1 12 0l51.387 29.668c3.713 2.142 6 6.103 6 10.39v59.336c0 4.287-2.287 8.248-6 10.39z" stroke="#000" stroke-linecap="round"/><path d="M29 73a35 35 0 0 0 23.931 33.206c1.75.328 2.393-.752 2.393-1.684 0-.831-.03-3.032-.043-5.95-9.74 2.113-11.791-4.694-11.791-4.694-1.592-4.043-3.894-5.12-3.894-5.12-3.172-2.17.245-2.126.245-2.126 3.513.245 5.36 3.605 5.36 3.605 3.123 5.351 8.194 3.807 10.193 2.91.315-2.262 1.217-3.806 2.219-4.681C49.838 87.59 41.67 84.58 41.67 71.17c0-3.82 1.356-6.943 3.6-9.393-.393-.884-1.574-4.44.307-9.262 0 0 2.931-.94 9.625 3.588a33.556 33.556 0 0 1 8.75-1.182c2.956.007 5.898.404 8.75 1.182 6.65-4.528 9.581-3.588 9.581-3.588 1.881 4.821.7 8.378.35 9.262a13.563 13.563 0 0 1 3.588 9.393c0 13.445-8.182 16.406-15.97 17.268 1.226 1.05 2.363 3.194 2.363 6.475 0 4.682-.043 8.444-.043 9.582 0 .918.612 2.012 2.406 1.662A34.878 34.878 0 0 0 99 73c0-19.33-15.67-35-35-35S29 53.67 29 73z" stroke="#080707"/></g></svg>