<?xml version="1.0" encoding="UTF-8"?>
<svg width="129px" height="145px" viewBox="0 0 129 145" version="1.1" xmlns="http://www.w3.org/2000/svg" xmlns:xlink="http://www.w3.org/1999/xlink">
    <!-- Generator: Sketch 41.2 (35397) - http://www.bohemiancoding.com/sketch -->
    <title>Goodreads</title>
    <desc>Created with Sketch.</desc>
    <defs></defs>
    <g id="Page-1" stroke="none" stroke-width="1" fill="none" fill-rule="evenodd">
        <g id="Goodreads" transform="translate(1.000000, 1.000000)" stroke="#000000" stroke-width="2">
            <path d="M120.771,111.39375 L69.384,141.06175 C65.671,143.20575 61.097,143.20575 57.384,141.06175 L6,111.39375 C2.287,109.25075 0,105.28975 0,101.00275 L0,41.66675 C0,37.37975 2.287,33.41875 6,31.27675 L57.384,1.60875 C61.097,-0.53625 65.671,-0.53625 69.384,1.60875 L120.771,31.27675 C124.484,33.41875 126.771,37.37975 126.771,41.66675 L126.771,101.00275 C126.771,105.28975 124.484,109.25075 120.771,111.39375 L120.771,111.39375 Z" id="Stroke-257" stroke-linecap="round" fill="#FFFFFF"></path>
            <g id="goodreads" transform="translate(41.000000, 37.000000)">
                <path d="M44.0228571,45.5571429 L44.0228571,1.39714286 L38.1514286,1.39714286 L38.1514286,9.68571429 L37.9671429,9.68571429 C37.3481462,8.3352569 36.5400382,7.07980335 35.5671429,5.95714286 C34.5347072,4.7716354 33.3535122,3.72440525 32.0528571,2.84142857 C30.7242857,1.94142857 29.31,1.24285714 27.7242857,0.741428571 C26.0865942,0.24281611 24.3833273,-0.0071119336 22.6714286,-3.35489286e-14 C19.2214286,-3.35489286e-14 16.1142857,0.642857143 13.4142857,1.91142857 C10.7142857,3.18428571 8.44285714,4.92428571 6.61285714,7.12714286 C4.73824403,9.41528614 3.31583686,12.0390311 2.42142857,14.8585714 C1.44890772,17.8842382 0.961447461,21.0447744 0.977142857,24.2228571 C0.977142857,27.6385714 1.38,30.8528571 2.19,33.8657143 C3.00428571,36.8785714 4.29,39.5014286 6.09,41.7385714 C7.89,43.9671429 10.1185714,45.7242857 12.8614286,46.9671429 C15.6042857,48.21 18.9042857,48.8528571 22.7614286,48.8528571 C26.3185714,48.8528571 29.4042857,47.9528571 32.0614286,46.1528571 C34.7087514,44.3644711 36.8021349,41.8702269 38.1042857,38.9528571 L38.2757143,38.9528571 L38.2757143,45.4671429 C38.2757143,51.2957143 37.0757143,55.7528571 34.6757143,58.8814286 C32.2757143,61.9671429 28.3328571,63.5528571 22.8471429,63.5528571 C21.2185714,63.5528571 19.6328571,63.3814286 18.09,63.0385714 C16.6025264,62.7099606 15.1724682,62.1610494 13.8471429,61.41 C12.6042857,60.6385714 11.49,59.6957143 10.59,58.4528571 C9.69,57.21 9.09,55.71 8.79,53.91 L2.78571429,53.91 C2.97857143,56.4385714 3.68571429,58.6242857 4.88571429,60.4671429 C6.09857143,62.31 7.62857143,63.81 9.45428571,65.01 C11.2842857,66.1671429 13.3542857,67.0242857 15.6471429,67.5814286 C17.9614286,68.1385714 20.3185714,68.4385714 22.7614286,68.4385714 C26.7042857,68.4385714 30.0042857,67.8814286 32.7042857,66.8528571 C35.4042857,65.7814286 37.59,64.2814286 39.2614286,62.2671429 C40.9757143,60.2528571 42.1757143,57.8528571 42.9471429,54.9814286 C43.7185714,52.11 44.1471429,48.8957143 44.1471429,45.3814286 L44.0228571,45.5571429 Z M22.68,43.9714286 C19.9542857,43.9714286 17.5928571,43.4314286 15.6085714,42.3428571 C13.6639409,41.2984797 11.9760212,39.8345425 10.6671429,38.0571429 C9.32251109,36.2246429 8.33395213,34.1559379 7.75285714,31.9585714 C7.11607464,29.6513732 6.79883112,27.2677207 6.81,24.8742857 C6.81,22.3885714 7.11,19.9542857 7.66714286,17.5628571 C8.26714286,15.1714286 9.21,13.0414286 10.4957143,11.1771429 C11.7814286,9.31714286 13.4528571,7.80857143 15.4242857,6.66 C17.3957143,5.51142857 19.7957143,4.93714286 22.5814286,4.93714286 C25.3671429,4.93714286 27.7242857,5.52857143 29.6957143,6.70714286 C31.6242857,7.89 33.2528571,9.44142857 34.4957143,11.3657143 C35.7385714,13.2942857 36.6385714,15.4371429 37.1957143,17.7942857 C37.7528571,20.1514286 38.01,22.5171429 38.01,24.8742857 C38.01,27.3 37.6671429,29.6571429 37.0242857,31.9585714 C36.3814286,34.2557143 35.3957143,36.2871429 34.0671429,38.0571429 C32.7727774,39.810908 31.1224451,41.2713791 29.2242857,42.3428571 C27.2957143,43.4314286 25.0671429,43.9714286 22.4957143,43.9714286 L22.68,43.9714286 Z" id="Shape"></path>
            </g>
        </g>
    </g>
</svg>