<svg width="129" height="145" viewBox="0 0 129 145" xmlns="http://www.w3.org/2000/svg"><title>Goodreads</title><g stroke="#000" stroke-width="3" fill="none" fill-rule="evenodd"><path d="M121.771 112.394l-51.387 29.668a11.998 11.998 0 0 1-12 0L7 112.394a11.997 11.997 0 0 1-6-10.391V42.667c0-4.287 2.287-8.248 6-10.39L58.384 2.609a11.993 11.993 0 0 1 12 0l51.387 29.668c3.713 2.142 6 6.103 6 10.39v59.336c0 4.287-2.287 8.248-6 10.39z" stroke-linecap="round" fill="#FFF"/><path d="M86.023 83.557v-44.16H80.15v8.289h-.184a15.651 15.651 0 0 0-2.4-3.729 18.261 18.261 0 0 0-3.514-3.116 16.474 16.474 0 0 0-4.329-2.1A17.104 17.104 0 0 0 64.671 38c-3.45 0-6.557.643-9.257 1.911-2.7 1.273-4.971 3.013-6.801 5.216a23.331 23.331 0 0 0-4.192 7.732 30.116 30.116 0 0 0-1.444 9.364c0 3.416.403 6.63 1.213 9.643.814 3.013 2.1 5.635 3.9 7.873a18.237 18.237 0 0 0 6.771 5.228c2.743 1.243 6.043 1.886 9.9 1.886 3.558 0 6.643-.9 9.3-2.7a17.1 17.1 0 0 0 6.043-7.2h.172v6.514c0 5.829-1.2 10.286-3.6 13.414-2.4 3.086-6.343 4.672-11.829 4.672-1.628 0-3.214-.172-4.757-.514a15.3 15.3 0 0 1-4.243-1.629c-1.243-.771-2.357-1.714-3.257-2.957-.9-1.243-1.5-2.743-1.8-4.543h-6.004c.193 2.529.9 4.714 2.1 6.557a15.748 15.748 0 0 0 4.568 4.543c1.83 1.157 3.9 2.014 6.193 2.571 2.314.558 4.672.858 7.114.858 3.943 0 7.243-.558 9.943-1.586 2.7-1.072 4.886-2.572 6.557-4.586 1.715-2.014 2.915-4.414 3.686-7.286.772-2.871 1.2-6.085 1.2-9.6l-.124.176zM64.68 81.971c-2.726 0-5.087-.54-7.071-1.628a14.88 14.88 0 0 1-4.942-4.286 18.154 18.154 0 0 1-2.914-6.098 26.169 26.169 0 0 1-.943-7.085c0-2.485.3-4.92.857-7.311.6-2.392 1.543-4.522 2.829-6.386 1.285-1.86 2.957-3.368 4.928-4.517 1.972-1.149 4.372-1.723 7.157-1.723 2.786 0 5.143.592 7.115 1.77 1.928 1.183 3.557 2.734 4.8 4.659 1.243 1.928 2.143 4.071 2.7 6.428a30.69 30.69 0 0 1 .814 7.08c0 2.426-.343 4.783-.986 7.085-.643 2.297-1.628 4.328-2.957 6.098a15.471 15.471 0 0 1-4.843 4.286c-1.928 1.088-4.157 1.628-6.728 1.628h.184z"/></g></svg>