<svg viewBox="0 0 16 16" xmlns="http://www.w3.org/2000/svg" fill-rule="evenodd" clip-rule="evenodd" stroke-linejoin="round" stroke-miterlimit="1.414"><path d="M13.022 10.63V.326h-1.37V2.26h-.043a3.652 3.652 0 0 0-.56-.87 4.261 4.261 0 0 0-.82-.727c-.31-.21-.64-.373-1.01-.49A3.991 3.991 0 0 0 8.04 0c-.805 0-1.53.15-2.16.446-.63.297-1.16.703-1.587 1.217a5.444 5.444 0 0 0-.978 1.804 7.027 7.027 0 0 0-.337 2.185c0 .797.094 1.547.283 2.25.19.703.49 1.315.91 1.837.42.52.94.93 1.58 1.22.64.29 1.41.44 2.31.44.83 0 1.55-.21 2.17-.63a3.99 3.99 0 0 0 1.41-1.68h.04v1.52c0 1.36-.28 2.4-.84 3.13-.56.72-1.48 1.09-2.76 1.09-.38 0-.75-.04-1.11-.12a3.57 3.57 0 0 1-.99-.38c-.29-.18-.55-.4-.76-.69-.21-.29-.35-.64-.42-1.06H3.4c.045.59.21 1.1.49 1.53.283.43.64.78 1.066 1.06.427.27.91.47 1.445.6.54.13 1.09.2 1.66.2.92 0 1.69-.13 2.32-.37.63-.25 1.14-.6 1.53-1.07.4-.47.68-1.03.86-1.7.18-.67.28-1.42.28-2.24zm-4.98-.37c-.636 0-1.187-.126-1.65-.38a3.472 3.472 0 0 1-1.153-1 4.236 4.236 0 0 1-.68-1.423 6.106 6.106 0 0 1-.22-1.653c0-.58.07-1.148.2-1.706.14-.558.36-1.055.66-1.49.3-.434.69-.786 1.15-1.054.46-.268 1.02-.402 1.67-.402s1.2.138 1.66.413c.45.276.83.638 1.12 1.087.29.45.5.95.63 1.5s.19 1.102.19 1.652c0 .566-.08 1.116-.23 1.653-.15.536-.38 1.01-.69 1.423a3.61 3.61 0 0 1-1.13 1c-.45.254-.97.38-1.57.38z" fill-rule="nonzero"/></svg>