<svg width="129" height="145" viewBox="0 0 129 145" xmlns="http://www.w3.org/2000/svg"><title>Instagram</title><g stroke="#000" stroke-width="3" fill="none" fill-rule="evenodd"><path d="M121.831 112.398l-51.387 29.668a11.998 11.998 0 0 1-12 0L7.06 112.398a11.999 11.999 0 0 1-6-10.392V42.67c0-4.287 2.287-8.248 6-10.391L58.444 2.613a11.998 11.998 0 0 1 12 0l51.387 29.667c3.713 2.143 6 6.104 6 10.39v59.336c0 4.288-2.287 8.248-6 10.392z" stroke-linecap="round" fill="#FFF"/><path d="M92.251 98.005a2.14 2.14 0 0 1-2.139 2.14H38.778a2.14 2.14 0 0 1-2.138-2.14V65.922h8.554c-1.113 1.604-1.49 4.597-1.49 6.496 0 11.453 9.34 20.773 20.818 20.773 11.485 0 20.823-9.32 20.823-20.773 0-1.899-.27-4.847-1.65-6.496h8.556v32.083zM64.522 59.287c7.27 0 13.165 5.88 13.165 13.131 0 7.253-5.895 13.133-13.165 13.133-7.265 0-13.16-5.88-13.16-13.133 0-7.25 5.895-13.13 13.16-13.13zm14.895-10.475a2.14 2.14 0 0 1 2.14-2.14h6.415c1.18 0 2.14.96 2.14 2.14v6.416a2.142 2.142 0 0 1-2.14 2.14h-6.416a2.14 2.14 0 0 1-2.139-2.14v-6.416zM90.53 38.117H38.358c-4.494 0-8.134 3.634-8.134 8.117v52.21c0 4.483 3.64 8.117 8.134 8.117H90.53c4.494 0 8.137-3.634 8.137-8.118V46.234c0-4.483-3.643-8.117-8.137-8.117z"/></g></svg>