<?xml version="1.0" encoding="UTF-8"?>
<svg width="129px" height="145px" viewBox="0 0 129 145" version="1.1" xmlns="http://www.w3.org/2000/svg" xmlns:xlink="http://www.w3.org/1999/xlink">
    <!-- Generator: Sketch 41.2 (35397) - http://www.bohemiancoding.com/sketch -->
    <title>Instagram</title>
    <desc>Created with Sketch.</desc>
    <defs></defs>
    <g id="Page-1" stroke="none" stroke-width="1" fill="none" fill-rule="evenodd">
        <g id="Instagram" transform="translate(0.485800, 1.000000)" stroke="#000000" stroke-width="2">
            <path d="M121.3457,111.3979 L69.9587,141.0659 C66.2457,143.2099 61.6717,143.2099 57.9587,141.0659 L6.5747,111.3979 C2.8617,109.2539 0.5747,105.2939 0.5747,101.0059 L0.5747,41.6709 C0.5747,37.3839 2.8617,33.4229 6.5747,31.2799 L57.9587,1.6129 C61.6717,-0.5311 66.2457,-0.5311 69.9587,1.6129 L121.3457,31.2799 C125.0587,33.4229 127.3457,37.3839 127.3457,41.6709 L127.3457,101.0059 C127.3457,105.2939 125.0587,109.2539 121.3457,111.3979 L121.3457,111.3979 Z" id="Stroke-193" stroke-linecap="round" fill="#FFFFFF"></path>
            <path d="M91.7656,97.0053 C91.7656,98.1873 90.8066,99.1443 89.6266,99.1443 L38.2926,99.1443 C37.1136,99.1443 36.1546,98.1873 36.1546,97.0053 L36.1546,64.9223 L44.7086,64.9223 C43.5956,66.5263 43.2186,69.5193 43.2186,71.4183 C43.2186,82.8713 52.5586,92.1913 64.0366,92.1913 C75.5216,92.1913 84.8596,82.8713 84.8596,71.4183 C84.8596,69.5193 84.5896,66.5713 83.2086,64.9223 L91.7656,64.9223 L91.7656,97.0053 L91.7656,97.0053 Z M64.0366,58.2873 C71.3066,58.2873 77.2016,64.1673 77.2016,71.4183 C77.2016,78.6713 71.3066,84.5513 64.0366,84.5513 C56.7716,84.5513 50.8766,78.6713 50.8766,71.4183 C50.8766,64.1673 56.7716,58.2873 64.0366,58.2873 L64.0366,58.2873 Z M78.9316,47.8123 C78.9316,46.6313 79.8906,45.6723 81.0706,45.6723 L87.4866,45.6723 C88.6656,45.6723 89.6266,46.6313 89.6266,47.8123 L89.6266,54.2283 C89.6266,55.4093 88.6656,56.3673 87.4866,56.3673 L81.0706,56.3673 C79.8906,56.3673 78.9316,55.4093 78.9316,54.2283 L78.9316,47.8123 L78.9316,47.8123 Z M90.0446,37.1173 L37.8726,37.1173 C33.3786,37.1173 29.7386,40.7513 29.7386,45.2343 L29.7386,97.4433 C29.7386,101.9273 33.3786,105.5613 37.8726,105.5613 L90.0446,105.5613 C94.5386,105.5613 98.1816,101.9273 98.1816,97.4433 L98.1816,45.2343 C98.1816,40.7513 94.5386,37.1173 90.0446,37.1173 L90.0446,37.1173 Z" id="Stroke-170"></path>
        </g>
    </g>
</svg>