<?xml version="1.0" encoding="UTF-8"?>
<svg width="129px" height="145px" viewBox="0 0 129 145" version="1.1" xmlns="http://www.w3.org/2000/svg" xmlns:xlink="http://www.w3.org/1999/xlink">
    <!-- Generator: Sketch 41.2 (35397) - http://www.bohemiancoding.com/sketch -->
    <title>Last.fm</title>
    <desc>Created with Sketch.</desc>
    <defs></defs>
    <g id="Page-1" stroke="none" stroke-width="1" fill="none" fill-rule="evenodd">
        <g id="Last.fm" transform="translate(1.000000, 1.000000)" stroke="#000000" stroke-width="2">
            <path d="M120.771,111.39375 L69.384,141.06175 C65.671,143.20575 61.097,143.20575 57.384,141.06175 L6,111.39375 C2.287,109.25075 0,105.28975 0,101.00275 L0,41.66675 C0,37.37975 2.287,33.41875 6,31.27675 L57.384,1.60875 C61.097,-0.53625 65.671,-0.53625 69.384,1.60875 L120.771,31.27675 C124.484,33.41875 126.771,37.37975 126.771,41.66675 L126.771,101.00275 C126.771,105.28975 124.484,109.25075 120.771,111.39375 L120.771,111.39375 Z" id="Stroke-257" stroke-linecap="round" fill="#FFFFFF"></path>
            <g id="lastfm" transform="translate(27.000000, 50.000000)">
                <path d="M32.193,37.1348245 L29.519375,29.8941887 C29.519375,29.8941887 25.16675,34.7212792 18.6469375,34.7212792 C12.875375,34.7212792 8.77825,29.7214679 8.77825,21.7217698 C8.77825,11.4767019 13.9658125,7.81320377 19.0666875,7.81320377 C26.4123125,7.81320377 28.7391875,12.5584792 30.7466875,18.6400679 L33.3929375,26.9715717 C36.0391875,35.0530849 41.0579375,41.5482943 55.5210625,41.5482943 C65.8779375,41.5482943 72.9041875,38.3847774 72.9041875,30.0487283 C72.9041875,23.3080736 69.0260625,19.8082057 61.8629375,18.1400868 L56.5248125,16.9764943 C52.8291875,16.1447075 51.7341875,14.6447642 51.7341875,12.1448585 C51.7341875,9.31314717 53.9698125,7.6450283 57.6654375,7.6450283 C61.6804375,7.6450283 63.8248125,9.1449717 64.1898125,12.7266547 L72.5391875,11.7266925 C71.8548125,4.22697547 66.6535625,1.14981887 58.1216875,1.14981887 C50.5935625,1.14981887 43.2479375,3.98153019 43.2479375,13.0584604 C43.2479375,18.7264283 45.9854375,22.3081113 52.9204375,23.9671396 L58.5779375,25.3079981 C62.8210625,26.3079604 64.2354375,28.0806208 64.2354375,30.4896208 C64.2354375,33.5804132 61.2241875,34.8530925 55.5210625,34.8530925 C47.0804375,34.8530925 43.5673125,30.4441679 41.5598125,24.3534887 L38.8223125,16.0356208 C35.3091875,5.21784717 29.6973125,1.21799811 18.5648125,1.21799811 C6.524375,1.168 0,8.89498113 0,22.0763019 C0,34.7258245 6.524375,41.575566 18.23175,41.575566 C27.676125,41.575566 32.193,37.1666415 32.193,37.1666415 L32.193,37.1348245 Z" id="Shape"></path>
            </g>
        </g>
    </g>
</svg>