<svg width="129" height="145" viewBox="0 0 129 145" xmlns="http://www.w3.org/2000/svg"><title>Last.fm</title><g stroke="#000" stroke-width="3" fill="none" fill-rule="evenodd"><path d="M121.771 112.394l-51.387 29.668a11.998 11.998 0 0 1-12 0L7 112.394a11.997 11.997 0 0 1-6-10.391V42.667c0-4.287 2.287-8.248 6-10.39L58.384 2.609a11.993 11.993 0 0 1 12 0l51.387 29.668c3.713 2.142 6 6.103 6 10.39v59.336c0 4.287-2.287 8.248-6 10.39z" stroke-linecap="round" fill="#FFF"/><path d="M60.193 88.135l-2.674-7.24s-4.352 4.826-10.872 4.826c-5.772 0-9.869-5-9.869-13 0-10.244 5.188-13.908 10.289-13.908 7.345 0 9.672 4.745 11.68 10.827l2.646 8.332c2.646 8.081 7.665 14.576 22.128 14.576 10.357 0 17.383-3.163 17.383-11.5 0-6.74-3.878-10.24-11.041-11.908l-5.338-1.164c-3.696-.831-4.79-2.331-4.79-4.831 0-2.832 2.235-4.5 5.93-4.5 4.015 0 6.16 1.5 6.525 5.082l8.35-1c-.685-7.5-5.886-10.577-14.418-10.577-7.528 0-14.874 2.832-14.874 11.908 0 5.668 2.737 9.25 9.672 10.91l5.658 1.34c4.243 1 5.657 2.773 5.657 5.182 0 3.09-3.01 4.363-8.714 4.363-8.44 0-11.954-4.409-13.961-10.5l-2.738-8.317c-3.513-10.818-9.125-14.818-20.257-14.818C34.525 52.168 28 59.895 28 73.076c0 12.65 6.524 19.5 18.232 19.5 9.444 0 13.961-4.41 13.961-4.41v-.031z"/></g></svg>