<?xml version="1.0" encoding="UTF-8"?>
<svg width="130px" height="145px" viewBox="0 0 130 145" version="1.1" xmlns="http://www.w3.org/2000/svg" xmlns:xlink="http://www.w3.org/1999/xlink">
    <!-- Generator: Sketch 41.2 (35397) - http://www.bohemiancoding.com/sketch -->
    <title>LinkedIn</title>
    <desc>Created with Sketch.</desc>
    <defs></defs>
    <g id="Page-1" stroke="none" stroke-width="1" fill="none" fill-rule="evenodd">
        <g id="LinkedIn" transform="translate(1.485800, 1.000000)" stroke="#000000" stroke-width="2">
            <path d="M120.8301,111.3979 L69.4451,141.0659 C65.7321,143.2099 61.1581,143.2099 57.4451,141.0659 L6.0601,111.3979 C2.3481,109.2539 0.0601,105.2939 0.0601,101.0059 L0.0601,41.6709 C0.0601,37.3839 2.3481,33.4229 6.0601,31.2799 L57.4451,1.6129 C61.1581,-0.5311 65.7321,-0.5311 69.4451,1.6129 L120.8301,31.2799 C124.5431,33.4229 126.8301,37.3839 126.8301,41.6709 L126.8301,101.0059 C126.8301,105.2939 124.5431,109.2539 120.8301,111.3979 L120.8301,111.3979 Z" id="Stroke-191" stroke-linecap="round" fill="#FFFFFF"></path>
            <path d="M37.3613,39.2163 C32.4333,39.2163 29.2113,42.3813 29.2113,46.5583 C29.2113,50.6553 32.3413,53.8883 37.1743,53.8883 L37.2693,53.8883 C42.2853,53.8883 45.4083,50.6443 45.4083,46.5463 C45.3123,42.3733 42.2853,39.2163 37.3613,39.2163 L37.3613,39.2163 Z" id="Stroke-171"></path>
            <path d="M80.7441,58.7705 C73.0981,58.7705 68.3081,62.9125 67.4221,65.8135 L67.4221,59.1775 L52.4321,59.1775 C52.6231,62.7005 52.4321,101.4615 52.4321,101.4615 L67.4221,101.4615 L67.4221,78.5805 C67.4221,77.3085 67.3611,76.0375 67.7461,75.1245 C68.7791,72.5815 70.9941,69.9425 74.9741,69.9425 C80.1801,69.9425 82.5471,73.8535 82.5471,79.5805 L82.5471,101.4615 L97.6801,101.4615 L97.6801,77.9505 C97.6801,64.8535 90.2281,58.7705 80.7441,58.7705 L80.7441,58.7705 Z" id="Stroke-172"></path>
            <polygon id="Stroke-173" points="30.936 101.462 44.284 101.462 44.284 59.177 30.936 59.177"></polygon>
        </g>
    </g>
</svg>