<svg width="130" height="145" viewBox="0 0 130 145" xmlns="http://www.w3.org/2000/svg"><title>LinkedIn</title><g stroke="#000" stroke-width="3" fill="none" fill-rule="evenodd"><path d="M122.316 112.398L70.93 142.066a11.998 11.998 0 0 1-12 0L7.546 112.398a12 12 0 0 1-6-10.392V42.67a12 12 0 0 1 6-10.391L58.93 2.613a11.998 11.998 0 0 1 12 0l51.385 29.667c3.713 2.143 6 6.104 6 10.39v59.336c0 4.288-2.287 8.248-6 10.392z" stroke-linecap="round" fill="#FFF"/><path d="M38.847 40.216c-4.928 0-8.15 3.165-8.15 7.342 0 4.097 3.13 7.33 7.963 7.33h.095c5.016 0 8.14-3.244 8.14-7.342-.097-4.173-3.124-7.33-8.048-7.33zM82.23 59.77c-7.646 0-12.436 4.142-13.322 7.044v-6.636h-14.99c.19 3.523 0 42.284 0 42.284h14.99V79.58c0-1.272-.061-2.543.324-3.456 1.033-2.542 3.248-5.181 7.228-5.181 5.206 0 7.573 3.91 7.573 9.638v21.88h15.133v-23.51c0-13.097-7.452-19.18-16.936-19.18zm-49.808 42.692H45.77V60.177H32.422z"/></g></svg>