<?xml version="1.0" encoding="UTF-8"?>
<svg width="129px" height="145px" viewBox="0 0 129 145" version="1.1" xmlns="http://www.w3.org/2000/svg" xmlns:xlink="http://www.w3.org/1999/xlink">
    <!-- Generator: Sketch 41.2 (35397) - http://www.bohemiancoding.com/sketch -->
    <title>Twitter</title>
    <desc>Created with Sketch.</desc>
    <defs></defs>
    <g id="Page-1" stroke="none" stroke-width="1" fill="none" fill-rule="evenodd">
        <g id="Twitter" transform="translate(1.000000, 1.000000)" stroke="#000000" stroke-width="2">
            <path d="M120.989162,111.651438 L69.5103375,141.388269 C65.7906303,143.537244 61.2083678,143.537244 57.4886607,141.388269 L6.01083844,111.651438 C2.29213306,109.502464 0,105.533276 0,101.235328 L0,41.7626674 C0,37.4657214 2.29213306,33.4955316 6.01083844,31.3475597 L57.4886607,1.61173065 C61.2083678,-0.53724355 65.7906303,-0.53724355 69.5103375,1.61173065 L120.989162,31.3475597 C124.708869,33.4955316 127,37.4657214 127,41.7626674 L127,101.235328 C127,105.533276 124.708869,109.502464 120.989162,111.651438 L120.989162,111.651438 Z" id="Stroke-183" stroke-linecap="round" fill="#FFFFFF"></path>
            <path d="M96.1243525,44.0354025 C93.4257885,45.6529709 90.4442214,46.8301957 87.2589324,47.4619499 C84.7209374,44.7147614 81.0920763,43 77.0768459,43 C69.3775587,43 63.1314217,49.329443 63.1314217,57.1366156 C63.1314217,58.2454087 63.2518485,59.3214735 63.490695,60.3568759 C51.8976077,59.7657841 41.6181762,54.1434694 34.7327735,45.580572 C33.5325197,47.6751793 32.8460869,50.1069866 32.8460869,52.6954928 C32.8460869,57.5977862 35.3088151,61.9258479 39.0520816,64.4617905 C36.7689901,64.392367 34.6133503,63.7497034 32.7296743,62.6984327 L32.7296743,62.8719915 C32.7296743,69.7240946 37.5387181,75.4396352 43.9253531,76.7338882 C42.755206,77.0661295 41.5228383,77.2307624 40.2483213,77.2307624 C39.3511415,77.2307624 38.474033,77.1464624 37.6240204,76.9808377 C39.4003158,82.5942265 44.5465547,86.6832728 50.6542009,86.7933587 C45.8822887,90.5868591 39.8619519,92.8490746 33.3287977,92.8490746 C32.202807,92.8490746 31.088859,92.7836182 30,92.653697 C36.1748845,96.6584433 43.5098806,99 51.3837867,99 C77.0487463,99 91.0794728,77.4618436 91.0794728,58.7789781 C91.0794728,58.1640839 91.065423,57.5491898 91.0433448,56.9461968 C93.7680013,54.9527495 96.1353916,52.4654033 98,49.628956 C95.5011438,50.7536173 92.8096046,51.5143009 89.9896102,51.8544762 C92.8708216,50.1069866 95.0826606,47.3359957 96.1243525,44.0354025 L96.1243525,44.0354025 Z" id="Stroke-181"></path>
        </g>
    </g>
</svg>