<svg width="129" height="145" viewBox="0 0 129 145" xmlns="http://www.w3.org/2000/svg"><title>Twitter</title><g stroke="#000" stroke-width="3" fill="none" fill-rule="evenodd"><path d="M121.99 112.651l-51.48 29.737a12.014 12.014 0 0 1-12.021 0L7.01 112.651A12.03 12.03 0 0 1 1 102.235V42.763c0-4.297 2.292-8.267 6.01-10.415L58.49 2.612a12.014 12.014 0 0 1 12.021 0l51.48 29.736A12.026 12.026 0 0 1 128 42.763v59.472c0 4.298-2.291 8.267-6.01 10.416z" stroke-linecap="round" fill="#FFF"/><path d="M97.124 45.035a27.704 27.704 0 0 1-8.865 3.427A13.83 13.83 0 0 0 78.077 44c-7.7 0-13.946 6.33-13.946 14.137 0 1.108.12 2.184.36 3.22-11.593-.591-21.873-6.214-28.758-14.776a14.273 14.273 0 0 0-1.887 7.114c0 4.903 2.463 9.23 6.206 11.767a13.832 13.832 0 0 1-6.322-1.764v.174c0 6.852 4.809 12.568 11.195 13.862-1.17.332-2.402.497-3.677.497a13.71 13.71 0 0 1-2.624-.25c1.776 5.613 6.923 9.702 13.03 9.812A27.75 27.75 0 0 1 34.33 93.85c-1.126 0-2.24-.065-3.329-.195C37.175 97.658 44.51 100 52.384 100c25.665 0 39.695-21.538 39.695-40.221a50.4 50.4 0 0 0-.036-1.833A28.444 28.444 0 0 0 99 50.63a27.525 27.525 0 0 1-8.01 2.225 14.135 14.135 0 0 0 6.134-7.819z"/></g></svg>