<svg width="129" height="146" viewBox="0 0 129 146" xmlns="http://www.w3.org/2000/svg"><g stroke="#000" stroke-width="3" fill="none" fill-rule="evenodd"><path d="M121.772 112.771l-51.387 29.668a11.998 11.998 0 0 1-12 0L7.002 112.771a12 12 0 0 1-6-10.392V43.044a12 12 0 0 1 6-10.391L58.385 2.986a11.998 11.998 0 0 1 12 0l51.386 29.667c3.713 2.143 6 6.104 6 10.391v59.335c0 4.288-2.287 8.248-6 10.392z" stroke-linecap="round" fill="#FFF"/><path d="M56.026 83.288l-.003-22.91 21.875 11.495-21.872 11.415zm44.814-34.973c-3.079-3.25-6.53-3.264-8.11-3.453-11.33-.826-28.328-.826-28.328-.826h-.034s-16.995 0-28.327.825c-1.582.19-5.033.205-8.114 3.454-2.427 2.474-3.216 8.093-3.216 8.093s-.809 6.6-.809 13.197v6.186c0 6.6.81 13.198.81 13.198s.788 5.618 3.215 8.093c3.081 3.249 7.127 3.147 8.93 3.486 6.477.626 27.53.82 27.53.82s17.012-.026 28.342-.852c1.581-.19 5.032-.206 8.111-3.454 2.427-2.474 3.22-8.093 3.22-8.093s.811-6.598.811-13.198v-6.186c0-6.598-.812-13.198-.812-13.198s-.792-5.617-3.219-8.092z"/></g></svg>
