<svg width="864" height="302" viewBox="0 0 864 302" xmlns="http://www.w3.org/2000/svg"><g fill="none" fill-rule="evenodd"><rect fill="#76C1B2" x="196" y="57" width="597" height="160" rx="5"/><g transform="translate(593 83.5)"><rect fill="#FFE066" width="170" height="107" rx="3"/><text font-family="Arial" font-size="44" font-weight="bold" fill="#575757"><tspan x="73" y="66.3">1</tspan></text></g><g transform="translate(226 83)"><rect fill="#FFE066" y=".5" width="337" height="107" rx="3"/><text font-family="Arial" font-size="44" font-weight="bold" fill="#575757"><tspan x="156" y="70.1">2</tspan></text></g><path d="M791.5 135.5H166.3m0 0l10.8 3v-6l-10.4 3z" stroke="#F25F5C" stroke-width="3" stroke-linecap="square"/><text font-family="Open Sans Hebrew, Noto Sans Hebrew, Arial" font-size="32" font-weight="bold" fill="#252424" transform="translate(27 112)"><tspan x="0" y="34">ציר ראשי</tspan></text><path d="M499.5 59v188m0 0l3-10.8h-6l3 10.8z" stroke="#F25F5C" stroke-width="3" stroke-linecap="square"/><text font-family="Open Sans Hebrew, Noto Sans Hebrew, Arial" font-size="32" font-weight="bold" fill="#252424" transform="translate(431.5 59)"><tspan x=".1" y="224">ציר משני</tspan></text><text font-family="Open Sans Hebrew, Noto Sans Hebrew, Arial" font-size="17" font-weight="bold" fill="#575757"><tspan x="231" y="182">flex item</tspan></text><text font-family="Open Sans Hebrew, Noto Sans Hebrew, Arial" font-size="17" font-weight="bold" fill="#575757"><tspan x="200" y="210">flex container</tspan></text><text font-family="Open Sans Hebrew, Noto Sans Hebrew, Arial" font-size="17" font-weight="bold" fill="#575757"><tspan x="601" y="182">flex item</tspan></text><path d="M791.5 214.5v36" stroke="#979797" stroke-width="3" stroke-linecap="square" stroke-dasharray="6"/><text font-family="Open Sans Hebrew, Noto Sans Hebrew, Arial" font-size="18" font-weight="bold" fill="#575757" transform="translate(722 214)"><tspan x="0" y="56">התחלת ציר ראשי</tspan></text><path d="M194.5 214.5v36" stroke="#979797" stroke-width="3" stroke-linecap="square" stroke-dasharray="6"/><text font-family="Open Sans Hebrew, Noto Sans Hebrew, Arial" font-size="18" font-weight="bold" fill="#575757" transform="translate(138 214)"><tspan x="0" y="56">סיום ציר ראשי</tspan></text><path d="M196 59.4h-36" stroke="#979797" stroke-width="3" stroke-linecap="square" stroke-dasharray="6"/><text font-family="Open Sans Hebrew, Noto Sans Hebrew, Arial" font-size="18" font-weight="bold" fill="#575757" transform="translate(15 46)"><tspan x="0" y="19.4">התחלת ציר משני</tspan></text><path d="M196 214.4h-36" stroke="#979797" stroke-width="3" stroke-linecap="square" stroke-dasharray="6"/><text font-family="Open Sans Hebrew, Noto Sans Hebrew, Arial" font-size="18" font-weight="bold" fill="#575757" transform="translate(40 201)"><tspan x="0" y="19.4">סיום ציר משני</tspan></text><path d="M790.5 37h-592m592.5.5v15m-593-15v15M813.5 218V59m-.5 159.2h-15m15-159.4h-15" stroke="#2980B9" stroke-width="2" stroke-linecap="square"/><text transform="rotate(90 832 137)" font-family="Open Sans Hebrew, Noto Sans Hebrew, Arial" font-size="18" font-weight="bold" fill="#2980B9"><tspan x="793" y="144">גודל משני</tspan></text><text font-family="Open Sans Hebrew, Noto Sans Hebrew, Arial" font-size="18" font-weight="bold" fill="#2980B9"><tspan x="458" y="26">גודל ראשי</tspan></text></g></svg>